<?xml version="1.0" encoding="UTF-8"?>
<svg width="100px" height="19px" viewBox="0 0 100 19" version="1.1" xmlns="http://www.w3.org/2000/svg" xmlns:xlink="http://www.w3.org/1999/xlink">
    <!-- Generator: sketchtool 56.2 (101010) - https://sketch.com -->
    <title>AB878029-DA39-4B27-B418-CAA40F89EFB7@1.5x</title>
    <desc>Created with sketchtool.</desc>
    <g id="Page-1" stroke="none" stroke-width="1" fill="none" fill-rule="evenodd">
        <g id="home" transform="translate(-307.000000, -100.000000)" fill="#FFFFFF" fill-rule="nonzero">
            <g id="Group-Copy-5" transform="translate(307.000000, 100.000000)">
                <path d="M12.8162896,0 C14.5828563,0 16.2247767,0.150855534 17.7421,0.452571129 C19.2594234,0.754286723 21.0849983,1.272444 22.3530784,1.7446945 L22.3530784,6.15234375 C21.8545917,5.8724916 20.8598154,5.47020887 20.2345208,5.20784748 C19.6092261,4.94548609 18.9292831,4.71373701 18.1946712,4.51259328 C17.4600593,4.31144955 16.6729869,4.14966246 15.8334305,4.02722715 C14.9938741,3.90479183 14.110604,3.84357509 13.1835937,3.84357509 C12.0292036,3.84357509 11.0235001,3.92665495 10.1664529,4.09281716 C9.3094057,4.25897938 8.57480483,4.48198321 7.96262826,4.76183535 C7.3504517,5.0416875 6.84759992,5.367448 6.45405784,5.73912663 C6.06051576,6.11080526 5.75005944,6.50652775 5.52267957,6.92630597 C5.2952997,7.34608419 5.13788523,7.77460136 5.05043144,8.21187034 C4.96297764,8.64913931 4.9192514,9.07328386 4.9192514,9.4843167 C4.9192514,9.84287726 4.9564187,10.2320408 5.03075443,10.651819 C5.10509016,11.0715972 5.24501413,11.4913692 5.45053055,11.9111474 C5.65604697,12.3309256 5.94245385,12.733207 6.30975979,13.1180037 C6.67706574,13.5028004 7.15586808,13.8438651 7.7461812,14.141208 C8.33649432,14.4385509 9.04704575,14.6768589 9.87785681,14.8561392 C10.7086679,15.0354195 11.6968809,15.1250583 12.8425257,15.1250583 C13.4197207,15.1250583 13.9225725,15.1075678 14.3510961,15.0725863 C14.7796197,15.0376048 15.1709695,14.9895059 15.5251574,14.9282882 C15.8793453,14.8670706 16.2116647,14.792736 16.5221257,14.7052822 C16.8325867,14.6178284 17.1539746,14.5260033 17.486299,14.4298041 L17.486299,12.2522155 L12.0292094,12.2522155 L12.0292094,8.30369636 L22.3530784,8.30369636 L22.3530784,17.512535 C21.7059203,17.7311695 20.982251,17.9301239 20.1820487,18.1094042 C19.3818465,18.2886844 18.5554205,18.4417263 17.702746,18.5685343 C16.8500715,18.6953423 15.9952235,18.7937263 15.1381763,18.8636894 C14.2811291,18.9336524 13.4721936,18.9686334 12.7113456,18.9686334 C11.5307194,18.9686334 10.3982097,18.8899262 9.31378265,18.7325093 C8.22935559,18.5750925 7.21709309,18.3324119 6.27696479,18.0044601 C5.33683648,17.6765084 4.47980214,17.2589228 3.70583605,16.7516908 C2.93186996,16.2444588 2.27160371,15.6410366 1.72501749,14.9414062 C1.17843127,14.2417759 0.754286723,13.4393993 0.452571129,12.5342526 C0.150855534,11.6291058 0,10.6124707 0,9.4843167 C0,8.36490812 0.157414471,7.35045931 0.472248134,6.44093983 C0.787081798,5.53142036 1.22653053,4.72685751 1.79060751,4.02722715 C2.35468449,3.32759678 3.03244124,2.72417464 3.82389809,2.21694263 C4.61535494,1.70971062 5.48550715,1.29212501 6.43438083,0.964173274 C7.38325451,0.636221541 8.39770332,0.393540899 9.4777577,0.236124067 C10.5578121,0.0787072353 11.6706449,0 12.8162896,0 Z" id="Path"></path>
                <path d="M32.4539412,18.4832673 L27.5871618,18.4832673 L27.5871618,0.459130131 L39.7869053,0.459130131 C41.0987122,0.459130131 42.2115451,0.59468148 43.1254373,0.865788246 C44.0393294,1.13689501 44.7826755,1.52168594 45.3554979,2.02017257 C45.9283203,2.51865921 46.3437196,3.11989503 46.6017083,3.82389809 C46.859697,4.52790114 46.9886894,5.31278718 46.9886894,6.17857976 C46.9886894,6.93942778 46.8815601,7.60406665 46.6672983,8.17251632 C46.4530365,8.740966 46.1644433,9.22851359 45.80151,9.63517374 C45.4385768,10.0418339 45.0166185,10.3850849 44.5356227,10.664937 C44.0546268,10.9447892 43.5474024,11.1765383 43.0139342,11.3601912 L48.9170359,18.4832673 L43.2238223,18.4832673 L38.9111093,13.2375154 C38.1865844,12.3562423 37.1056167,11.8455574 35.9647492,11.8455574 L32.4539412,11.8455574 L32.4539412,18.4832673 Z M42.069438,6.15234375 C42.069438,5.80252857 42.0235254,5.50519012 41.9316989,5.2603195 C41.8398724,5.01544887 41.6802717,4.81649447 41.4528918,4.66345033 C41.2255119,4.51040618 40.9216145,4.39890427 40.5411905,4.32894123 C40.1607665,4.25897819 39.6863368,4.2239972 39.1178871,4.2239972 L32.4539412,4.2239972 L32.4539412,8.0806903 L39.1178871,8.0806903 C39.6863368,8.0806903 40.1607665,8.04570931 40.5411905,7.97574627 C40.9216145,7.90578323 41.2255119,7.79428132 41.4528918,7.64123717 C41.6802717,7.48819303 41.8398724,7.28923863 41.9316989,7.044368 C42.0235254,6.79949738 42.069438,6.50215893 42.069438,6.15234375 Z" id="Shape"></path>
                <path d="M64.3175344,15.0725863 L56.8403102,15.0725863 L55.1480877,18.4832673 L49.7172341,18.4832673 L59.1490788,0.459130131 L64.5799324,0.459130131 L74.0117771,18.4832673 L68.5809235,18.4832673 L68.0314693,17.3758402 C67.3314664,15.9649816 65.892503,15.0725863 64.3175344,15.0725863 Z M58.5850047,11.5569613 L65.1702425,11.5569613 L61.8907416,4.9192514 L58.5850047,11.5569613 Z" id="Shape"></path>
                <path d="M92.771773,17.2421937 L81.8301073,6.09987174 C81.387874,6.09987174 81.1667574,7.24513284 81.1667574,9.53565506 C81.1667574,11.8261773 81.387874,14.8087147 81.8301073,18.4832673 L76.9633279,18.4832673 C76.5210946,14.8087147 76.299978,11.8261773 76.299978,9.53565506 C76.299978,7.24513284 76.5210946,4.21962453 76.9633279,0.459130131 L82.2498834,0.459130131 L94.4233909,12.8949977 C94.8656241,12.8949977 95.0867408,11.758104 95.0867408,9.4843167 C95.0867408,7.21052938 94.8656241,4.20213386 94.4233909,0.459130131 L99.2639342,0.459130131 C99.7061675,4.19338853 99.9272842,7.19741138 99.9272842,9.47119869 C99.9272842,11.744986 99.7061675,14.7490089 99.2639342,18.4832673 L95.7299079,18.4832673 C94.6172779,18.4832673 93.5513406,18.0360575 92.771773,17.2421937 Z" id="Path"></path>
            </g>
        </g>
    </g>
</svg>